<?xml version="1.0" encoding="UTF-8" standalone="no"?>
<!-- Created with Inkscape (http://www.inkscape.org/) -->

<svg
   width="128"
   height="128"
   viewBox="0 0 33.866666 33.866666"
   version="1.1"
   id="svg5"
   inkscape:version="1.2 (dc2aedaf03, 2022-05-15)"
   sodipodi:docname="icon.svg"
   xmlns:inkscape="http://www.inkscape.org/namespaces/inkscape"
   xmlns:sodipodi="http://sodipodi.sourceforge.net/DTD/sodipodi-0.dtd"
   xmlns="http://www.w3.org/2000/svg"
   xmlns:svg="http://www.w3.org/2000/svg">
  <sodipodi:namedview
     id="namedview7"
     pagecolor="#ffffff"
     bordercolor="#666666"
     borderopacity="1.0"
     inkscape:showpageshadow="2"
     inkscape:pageopacity="0.0"
     inkscape:pagecheckerboard="true"
     inkscape:deskcolor="#d1d1d1"
     inkscape:document-units="mm"
     showgrid="false"
     inkscape:zoom="5.1781886"
     inkscape:cx="5.3107374"
     inkscape:cy="98.007244"
     inkscape:window-width="1920"
     inkscape:window-height="1080"
     inkscape:window-x="0"
     inkscape:window-y="0"
     inkscape:window-maximized="1"
     inkscape:current-layer="layer1" />
  <defs
     id="defs2" />
  <g
     inkscape:label="Layer 1"
     inkscape:groupmode="layer"
     id="layer1">
    <circle
       style="fill:#000000;stroke:#ffffff;stroke-width:0.79375;stroke-linecap:round;stroke-linejoin:bevel;fill-opacity:1;stroke-opacity:1;stroke-dasharray:none"
       id="path184"
       cx="16.933334"
       cy="16.933332"
       r="15.157149" />
  </g>
  <g
     inkscape:groupmode="layer"
     id="layer5"
     inkscape:label="lines" />
  <g
     inkscape:groupmode="layer"
     id="layer2"
     inkscape:label="music">
    <ellipse
       style="fill:#ffa73b;fill-opacity:1;stroke:#ffa73b;stroke-width:0.687334;stroke-linecap:round;stroke-linejoin:bevel;stroke-dasharray:none;stroke-opacity:1;stop-color:#000000"
       id="path10330"
       cx="11.076099"
       cy="28.32394"
       rx="3.6495035"
       ry="2.6071477"
       transform="rotate(-35)" />
    <path
       data-name="flags.d8th"
       d="m 25.723659,21.214898 c 0.147456,-0.03658 0.307604,0.03143 0.366954,0.162914 0.02651,0.03959 0.07549,0.21981 0.141181,0.403586 0.264004,1.057974 0.314853,1.96876 0.147928,2.918168 -0.131739,0.702167 -0.389742,1.258632 -0.868897,1.869972 -0.475692,0.595095 -0.94681,1.004376 -2.291654,1.992072 -0.927857,0.66879 -1.287823,0.965852 -1.678303,1.324351 -0.457864,0.42908 -0.83911,0.908405 -1.089603,1.3476 -0.145674,0.274687 -0.316751,-0.0096 -0.368551,0.234075 l -0.01727,0.08125 -0.116943,-0.02486 -0.11693,-0.02486 0.442679,-1.322059 0.431666,-2.030832 0.116928,0.02486 0.116943,0.02486 0.301817,-0.10565 c 1.146797,-0.384525 1.979084,-0.76798 2.681181,-1.196087 0.527581,-0.346339 0.911157,-0.672343 1.21811,-1.048596 0.357635,-0.450383 0.534401,-0.871288 0.61551,-1.499313 0.112758,-0.859029 0.01524,-1.796712 -0.279839,-2.708467 -0.04264,-0.127937 -0.04552,-0.196472 0.0253,-0.283297 0.05067,-0.07415 0.111153,-0.112221 0.221739,-0.139662 z"
       id="path4045"
       style="display:inline;fill:#ffa73b;fill-opacity:1;stroke:#ffa73b;stroke-width:0.79375;stroke-dasharray:none;stroke-opacity:1"
       sodipodi:nodetypes="ccccccccsccccccccccccccc" />
    <path
       style="fill:#ffa73b;fill-opacity:1;stroke:none;stroke-width:0.264583px;stroke-linecap:butt;stroke-linejoin:miter;stroke-opacity:1"
       d="m 21.736192,17.01547 -3.248257,15.005108 2.158336,-0.416145 2.284747,-10.204144 c 0,0 0.01216,-0.04406 0.02266,-0.06417 0.07072,-0.135489 0.169521,-0.255087 0.267434,-0.372442 0.121756,-0.145932 0.241527,-0.299511 0.396056,-0.410151 0.180334,-0.129116 0.391718,-0.212915 0.602036,-0.283326 0.159797,-0.0535 0.329496,-0.07094 0.49483,-0.103528 0.03023,-0.006 0.09088,-0.01682 0.09088,-0.01682 z"
       id="path27636"
       sodipodi:nodetypes="ccccaaaaacc" />
  </g>
  <g
     inkscape:groupmode="layer"
     id="layer3"
     inkscape:label="text">
    <text
       xml:space="preserve"
       style="font-size:13.346px;line-height:1.25;font-family:'Droid Serif';-inkscape-font-specification:'Droid Serif';word-spacing:0px;stroke-width:0.333652"
       x="2.5810227"
       y="19.082951"
       id="text16306"
       transform="scale(0.94450167,1.0587594)"><tspan
         sodipodi:role="line"
         id="tspan16304"
         style="font-style:italic;font-variant:normal;font-weight:bold;font-stretch:normal;font-family:Ubuntu;-inkscape-font-specification:'Ubuntu Italic';fill:#ffffff;fill-opacity:1;stroke-width:0.333652"
         x="2.5810227"
         y="19.082951">htt</tspan></text>
  </g>
  <g
     inkscape:groupmode="layer"
     id="layer4"
     inkscape:label="topring"
     style="font-variation-settings:normal;opacity:1;vector-effect:none;fill:#000000;fill-opacity:1;stroke:#ffffff;stroke-width:0.79375;stroke-linecap:round;stroke-linejoin:bevel;stroke-miterlimit:4;stroke-dasharray:none;stroke-dashoffset:0;stroke-opacity:1;-inkscape-stroke:none;stop-color:#000000;stop-opacity:1">
    <circle
       style="fill:none;fill-opacity:1;stroke:#ffffff;stroke-width:0.79375;stroke-linecap:round;stroke-linejoin:bevel;stroke-dasharray:none;stroke-opacity:1"
       id="path184-6"
       cx="16.933334"
       cy="16.933332"
       r="15.157149" />
  </g>
</svg>
