<?xml version="1.0" encoding="UTF-8" standalone="no"?>
<!-- Created with Inkscape (http://www.inkscape.org/) -->

<svg
   width="64"
   height="64"
   viewBox="0 0 16.933333 16.933333"
   version="1.1"
   id="svg5"
   xmlns="http://www.w3.org/2000/svg"
   xmlns:svg="http://www.w3.org/2000/svg">
  <defs
     id="defs2" />
  <g
     id="layer1">
    <style
       id="style3993">.abcjs-dragging-in-progress text, .abcjs-dragging-in-progress tspan {-webkit-touch-callout: none; -webkit-user-select: none; -khtml-user-select: none; -moz-user-select: none; -ms-user-select: none; user-select: none;}</style>
    <title
       id="title3995">Sheet Music for &quot;America the Beautiful&quot;</title>
    <g
       id="g4007"
       transform="matrix(0.1089035,0,0,0.23583916,-0.9210942,-15.518912)">
      <path
         d="m 15,78.2 h 145.85 v 0.7 H 15 Z"
         stroke="none"
         fill="currentColor"
         class="abcjs-top-line"
         id="path3997" />
      <path
         d="m 15,85.95 h 145.85 v 0.7 H 15 Z"
         stroke="none"
         fill="currentColor"
         id="path3999" />
      <path
         d="m 15,93.7 h 145.85 v 0.7 H 15 Z"
         stroke="none"
         fill="currentColor"
         id="path4001" />
      <path
         d="m 15,101.45 h 145.85 v 0.7 H 15 Z"
         stroke="none"
         fill="currentColor"
         id="path4003" />
      <path
         d="m 15,109.2 h 145.85 v 0.7 H 15 Z"
         stroke="none"
         fill="currentColor"
         id="path4005" />
    </g>
    <path
       d="M -57.605358,0.77803398 V -16.155299"
       stroke="none"
       fill="none"
       stroke-opacity="0"
       fill-opacity="0"
       class=""
       data-vertical="64"
       id="path4009"
       style="stroke-width:0.264583" />
    <g
       class=""
       fill="currentColor"
       stroke="none"
       data-name="note"
       selectable="false"
       data-index="0"
       id="g4031"
       transform="matrix(0.24249712,0,0,0.23583916,-12.904091,-15.518912)">
      <path
         data-name="dots.dot"
         d="m 84.976,96.247 c 0.09,-0.03 0.27,-0.06 0.39,-0.06 0.96,0 1.74,0.78 1.74,1.71 0,0.96 -0.78,1.74 -1.71,1.74 -0.96,0 -1.74,-0.78 -1.74,-1.71 0,-0.78 0.54,-1.5 1.32,-1.68 z"
         id="path4025" />
      <path
         data-name="A"
         d="m 76.936,93.877 c 0.36,-0.03 1.2,0 1.53,0.06 1.17,0.24 1.89,0.84 2.16,1.83 0.06,0.18 0.06,0.3 0.06,0.66 0,0.45 0,0.63 -0.15,1.08 -0.66,2.04 -3.06,3.93 -5.52,4.38 -0.54,0.09 -1.44,0.09 -1.83,0.03 -1.23,-0.27 -1.98,-0.87 -2.25,-1.86 -0.06,-0.18 -0.06,-0.3 -0.06,-0.66 0,-0.45 0,-0.63 0.15,-1.08 0.24,-0.78 0.75,-1.53 1.44,-2.22 1.2,-1.2 2.85,-2.01 4.47,-2.22 z"
         id="path4027" />
      <path
         d="m 80.66,70.8 v 25.84 h -1 V 70.8 Z"
         class="abcjs-stem"
         data-name="stem"
         id="path4029" />
    </g>
    <g
       class=""
       fill="currentColor"
       stroke="none"
       data-name="note"
       selectable="false"
       data-index="1"
       id="g4037"
       transform="matrix(0.24249712,0,0,0.23583916,-12.904091,-15.518912)">
      <path
         data-name="D"
         d="m 78.286,109.377 c 0.06,-0.03 0.27,-0.03 0.48,-0.03 1.05,0 1.71,0.24 2.1,0.81 0.42,0.6 0.45,1.35 0.18,2.4 -0.42,1.59 -1.14,2.73 -2.16,3.39 -1.41,0.93 -3.18,1.44 -5.4,1.53 -1.17,0.03 -1.89,-0.21 -2.28,-0.81 -0.42,-0.6 -0.45,-1.35 -0.18,-2.4 0.42,-1.59 1.14,-2.73 2.16,-3.39 0.63,-0.42 1.23,-0.72 1.98,-0.96 0.9,-0.3 1.65,-0.42 3.12,-0.54 z m 1.29,0.87 c -0.27,-0.09 -0.63,-0.12 -0.9,-0.03 -0.72,0.24 -1.53,0.69 -3.27,1.8 -2.34,1.5 -3.3,2.25 -3.57,2.79 -0.36,0.72 -0.06,1.5 0.66,1.77 0.24,0.12 0.69,0.09 0.99,0 0.84,-0.3 1.92,-0.93 4.14,-2.37 1.62,-1.08 2.37,-1.71 2.61,-2.19 0.36,-0.72 0.06,-1.5 -0.66,-1.77 z"
         id="path4033" />
      <path
         d="M 70.85,133.91461 V 114.72 h 1 v 19.19461 z"
         class="abcjs-stem"
         data-name="stem"
         id="path4035" />
    </g>
    <g
       class=""
       fill="currentColor"
       stroke="none"
       data-name="note"
       selectable="false"
       data-index="2"
       id="g4043"
       transform="matrix(0.24249712,0,0,0.23583916,-13.433258,-15.518912)">
      <path
         data-name="F"
         d="m 78.286,101.627 c 0.06,-0.03 0.27,-0.03 0.48,-0.03 1.05,0 1.71,0.24 2.1,0.81 0.42,0.6 0.45,1.35 0.18,2.4 -0.42,1.59 -1.14,2.73 -2.16,3.39 -1.41,0.93 -3.18,1.44 -5.4,1.53 -1.17,0.03 -1.89,-0.21 -2.28,-0.81 -0.42,-0.6 -0.45,-1.35 -0.18,-2.4 0.42,-1.59 1.14,-2.73 2.16,-3.39 0.63,-0.42 1.23,-0.72 1.98,-0.96 0.9,-0.3 1.65,-0.42 3.12,-0.54 z m 1.29,0.87 c -0.27,-0.09 -0.63,-0.12 -0.9,-0.03 -0.72,0.24 -1.53,0.69 -3.27,1.8 -2.34,1.5 -3.3,2.25 -3.57,2.79 -0.36,0.72 -0.06,1.5 0.66,1.77 0.24,0.12 0.69,0.09 0.99,0 0.84,-0.3 1.92,-0.93 4.14,-2.37 1.62,-1.08 2.37,-1.71 2.61,-2.19 0.36,-0.72 0.06,-1.5 -0.66,-1.77 z"
         id="path4039" />
      <path
         d="M 70.85,124.65697 V 106.97 h 1 v 17.68697 z"
         class="abcjs-stem"
         data-name="stem"
         id="path4041" />
    </g>
    <g
       class=""
       fill="currentColor"
       stroke="none"
       data-name="note"
       selectable="false"
       data-index="3"
       id="g4051"
       transform="matrix(0.24249712,0,0,0.23583916,-19.870704,-15.518912)">
      <path
         data-name="flags.d8th"
         d="m 136.516,103.422 c 0.24,-0.12 0.54,-0.06 0.69,0.15 0.06,0.06 0.21,0.36 0.39,0.66 0.84,1.77 1.26,3.36 1.32,5.1 0.03,1.29 -0.21,2.37 -0.81,3.63 -0.6,1.23 -1.26,2.13 -3.21,4.38 -1.35,1.53 -1.86,2.19 -2.4,2.97 -0.63,0.93 -1.11,1.92 -1.38,2.79 -0.15,0.54 -0.27,1.35 -0.27,1.8 v 0.15 h -0.21 -0.21 v -3.75 -3.75 h 0.21 0.21 l 0.48,-0.3 c 1.83,-1.11 3.12,-2.1 4.17,-3.12 0.78,-0.81 1.32,-1.53 1.71,-2.31 0.45,-0.93 0.6,-1.74 0.51,-2.88 -0.12,-1.56 -0.63,-3.18 -1.47,-4.68 -0.12,-0.21 -0.15,-0.33 -0.06,-0.51 0.06,-0.15 0.15,-0.24 0.33,-0.33 z"
         id="path4045" />
      <path
         data-name="A"
         d="m 136.936,93.877 c 0.36,-0.03 1.2,0 1.53,0.06 1.17,0.24 1.89,0.84 2.16,1.83 0.06,0.18 0.06,0.3 0.06,0.66 0,0.45 0,0.63 -0.15,1.08 -0.66,2.04 -3.06,3.93 -5.52,4.38 -0.54,0.09 -1.44,0.09 -1.83,0.03 -1.23,-0.27 -1.98,-0.87 -2.25,-1.86 -0.06,-0.18 -0.06,-0.3 -0.06,-0.66 0,-0.45 0,-0.63 0.15,-1.08 0.24,-0.78 0.75,-1.53 1.44,-2.22 1.2,-1.2 2.85,-2.01 4.47,-2.22 z"
         id="path4047" />
      <path
         d="M 130.85,125.05 V 99.22 h 1 v 25.83 z"
         class="abcjs-stem"
         data-name="stem"
         id="path4049" />
    </g>
  </g>
</svg>
