<svg width="128" height="128" viewBox="0 0 33.866666 33.866666" xmlns="http://www.w3.org/2000/svg"><circle cx="16.933" cy="16.933" r="15.157" stroke="#fff" stroke-width=".794" stroke-linecap="round" stroke-linejoin="bevel"/><g fill="#ffa73b"><ellipse cx="11.076" cy="28.324" rx="3.65" ry="2.607" transform="rotate(-35)" stroke="#ffa73b" stroke-width=".687" stroke-linecap="round" stroke-linejoin="bevel"/><path data-name="flags.d8th" d="M25.724 21.215c.147-.037.307.03.367.163.027.04.076.22.142.403.264 1.06.315 1.97.148 2.92-.132.702-.39 1.258-.87 1.87-.475.595-.946 1.004-2.29 1.992-.93.668-1.29.965-1.68 1.324-.457.43-.838.908-1.09 1.348-.144.274-.315-.01-.367.234l-.018.08-.116-.024-.118-.025.442-1.323.432-2.03.117.024.117.026.302-.106c1.146-.384 1.98-.768 2.68-1.196.528-.346.912-.672 1.22-1.048.357-.45.533-.872.614-1.5.113-.86.016-1.796-.28-2.708-.042-.128-.045-.197.026-.283.05-.075.11-.113.222-.14z" stroke="#ffa73b" stroke-width=".794"/><path d="M21.736 17.015L18.488 32.02l2.158-.416L22.93 21.4s.013-.044.024-.064c.07-.135.17-.255.267-.372.123-.146.243-.3.397-.41.18-.13.392-.213.602-.284.16-.053.33-.07.494-.103l.09-.017z"/></g><text style="line-height:1.25;-inkscape-font-specification:'Droid Serif'" x="2.581" y="19.083" transform="scale(.9445 1.05876)" font-size="13.346" font-family="Droid Serif" word-spacing="0" stroke-width=".334"><tspan style="-inkscape-font-specification:'Ubuntu Italic'" x="2.581" y="19.083" font-style="italic" font-weight="bold" font-family="Ubuntu" fill="#fff">htt</tspan></text><circle cx="16.933" cy="16.933" r="15.157" fill="none" style="font-variation-settings:normal;-inkscape-stroke:none" stroke="#fff" stroke-width=".794" stroke-linecap="round" stroke-linejoin="bevel"/></svg>